<?xml version="1.0" encoding="UTF-8"?>
<svg id="Calque_1" data-name="Calque 1" xmlns="http://www.w3.org/2000/svg" viewBox="0 0 34.914 32">
  <path id="book-alt" d="M32.04,1.855c-1.838-1.532-4.265-2.161-6.615-1.714l-4.776,1c-1.187.214-2.292.752-3.192,1.556-.881-.796-1.967-1.331-3.135-1.545L9.433.129C5.086-.662.921,2.22.129,6.567c-.086.472-.129.951-.129,1.43v14.245c-.005,3.856,2.744,7.165,6.536,7.867l8.448,1.669c.813.147,1.638.22,2.464.219.843,0,1.685-.077,2.514-.228l8.382-1.663c3.803-.691,6.568-4.001,6.57-7.866V7.997c.003-2.373-1.051-4.624-2.874-6.142ZM15.275,27.387l-7.924-1.565c-1.73-.314-2.987-1.821-2.987-3.579V7.997c.005-2.003,1.625-3.627,3.628-3.637.201,0,.402.018.6.054l4.889,1.018c1.037.189,1.791,1.092,1.791,2.146l.003,19.809ZM30.55,22.243c-.003,1.769-1.276,3.281-3.019,3.585l-7.892,1.559V7.578c.007-1.074.789-1.986,1.849-2.157l4.775-1c1.976-.359,3.869.952,4.228,2.928.039.214.058.43.059.648v14.246Z" fill="#6f82d9"/>
</svg>